# xmcd
#
# Track frame offsets: 
#        150
#        12901
#        25013
#        37749
#        49666
#        60557
#        72163
#        87223
#        97719
#        108540
#        120600
#        132998
#        142761
#        154898
#        166525
#        178175
#        189873
#        201179
#        213075
#        222798
#        234090
#        245707
#        258025
#        267916
#        277771
#
# Disc length: 3879 seconds
#
# Revision: 1
# Processed by: cddbd v1.5.2PL0 Copyright (c) Steve Scherf et al.
# Submitted via: ExactAudioCopyFreeDBPlugin 1.0
#
DISCID=3e0f2519
DTITLE=Various Artist - The Atlantic Records Story [Real Gone Music]
DYEAR=2016
DGENRE=Rhythm and Blues
TTITLE0=Ray Charles - Greenbacks
TTITLE1=The Drifters - Adorable
TTITLE2=The Cardinals - Lovely Girl
TTITLE3=Joe Turner - The Chicken and the Hawk
TTITLE4=The Clovers - Devil or Angel
TTITLE5=The Cookies - In Paradise
TTITLE6=Ray Charles - Drown in My Own Tears
TTITLE7=LaVern Baker - Get Up, Get Up (You Sleepyhead)
TTITLE8=The Drifters - Ruby Ruby
TTITLE9=The Cardinals - Choo Choo
TTITLE10=The Cardinals - Off Shore
TTITLE11=Clyde McPhatter - Treasure of Love
TTITLE12=LaVern Baker - Fee Fee Fi Fo Fum
TTITLE13=Ray Charles - Hallelujah, I Love Her So
TTITLE14=Chuck Willis - It's Too Late
TTITLE15=The Drifters - Soldier of Fortune
TTITLE16=The Cardinals - The End of the Story
TTITLE17=LaVern Baker - I Can't Love You Enough
TTITLE18=Clyde McPhatter - Thirty Days
TTITLE19=Clyde McPhatter - I'm Lonely Tonight
TTITLE20=Ray Charles - Lonely Avenue
TTITLE21=Ivory Joe Hunter - Since I Met You Baby
TTITLE22=LaVern Baker - Jim Dandy
TTITLE23=LaVern Baker - Tra La La
TTITLE24=Clyde McPhatter - Without Love (There is Nothing)
EXTD=
EXTT0=
EXTT1=
EXTT2=
EXTT3=
EXTT4=
EXTT5=
EXTT6=
EXTT7=
EXTT8=
EXTT9=
EXTT10=
EXTT11=
EXTT12=
EXTT13=
EXTT14=
EXTT15=
EXTT16=
EXTT17=
EXTT18=
EXTT19=
EXTT20=
EXTT21=
EXTT22=
EXTT23=
EXTT24=
PLAYORDER=
